<svg width="1319" height="193" viewBox="0 0 1319 193" fill="none" xmlns="http://www.w3.org/2000/svg">
<path d="M178.921 5.54035V175.418H151.056V59.07L99.2376 175.418H79.9278L27.8647 59.07V175.418H0V5.54035H30.0646L89.7049 138.753L149.101 5.54035H178.921Z" fill="#373737"/>
<path d="M275.919 177.129C260.112 177.129 245.528 173.462 232.166 166.129C218.967 158.633 208.457 148.286 200.635 135.087C192.976 121.725 189.147 106.733 189.147 90.1123C189.147 73.4912 192.976 58.5811 200.635 45.382C208.457 32.183 218.967 21.917 232.166 14.5842C245.528 7.08839 260.112 3.3405 275.919 3.3405C291.888 3.3405 306.472 7.08839 319.671 14.5842C333.033 21.917 343.544 32.183 351.202 45.382C358.861 58.5811 362.69 73.4912 362.69 90.1123C362.69 106.733 358.861 121.725 351.202 135.087C343.544 148.286 333.033 158.633 319.671 166.129C306.472 173.462 291.888 177.129 275.919 177.129ZM275.919 152.93C287.162 152.93 297.184 150.404 305.983 145.353C314.783 140.138 321.627 132.806 326.515 123.354C331.567 113.74 334.092 102.66 334.092 90.1123C334.092 77.565 331.567 66.5658 326.515 57.1146C321.627 47.6634 314.783 40.412 305.983 35.3605C297.184 30.309 287.162 27.7833 275.919 27.7833C264.675 27.7833 254.653 30.309 245.854 35.3605C237.055 40.412 230.129 47.6634 225.078 57.1146C220.189 66.5658 217.745 77.565 217.745 90.1123C217.745 102.66 220.189 113.74 225.078 123.354C230.129 132.806 237.055 140.138 245.854 145.353C254.653 150.404 264.675 152.93 275.919 152.93Z" fill="#373737"/>
<path d="M461.239 175.418L422.13 107.467H400.865V175.418H373V5.54035H431.663C444.699 5.54035 455.698 7.82167 464.661 12.3843C473.786 16.947 480.548 23.0577 484.948 30.7164C489.511 38.3751 491.792 46.9301 491.792 56.3813C491.792 67.462 488.533 77.565 482.015 86.6903C475.66 95.6526 465.801 101.763 452.439 105.022L494.481 175.418H461.239ZM400.865 85.2237H431.663C442.092 85.2237 449.913 82.6165 455.128 77.4021C460.505 72.1876 463.194 65.1807 463.194 56.3813C463.194 47.5819 460.587 40.7379 455.372 35.8494C450.158 30.7979 442.255 28.2721 431.663 28.2721H400.865V85.2237Z" fill="#373737"/>
<path d="M656.741 5.54035L592.945 175.418H560.68L496.641 5.54035H526.461L576.813 146.819L627.409 5.54035H656.741Z" fill="#373737"/>
<path d="M740.417 177.129C724.611 177.129 710.026 173.462 696.664 166.129C683.465 158.633 672.955 148.286 665.133 135.087C657.474 121.725 653.645 106.733 653.645 90.1123C653.645 73.4912 657.474 58.5811 665.133 45.382C672.955 32.183 683.465 21.917 696.664 14.5842C710.026 7.08839 724.611 3.3405 740.417 3.3405C756.386 3.3405 770.97 7.08839 784.169 14.5842C797.531 21.917 808.042 32.183 815.701 45.382C823.359 58.5811 827.189 73.4912 827.189 90.1123C827.189 106.733 823.359 121.725 815.701 135.087C808.042 148.286 797.531 158.633 784.169 166.129C770.97 173.462 756.386 177.129 740.417 177.129ZM740.417 152.93C751.661 152.93 761.682 150.404 770.481 145.353C779.281 140.138 786.125 132.806 791.013 123.354C796.065 113.74 798.591 102.66 798.591 90.1123C798.591 77.565 796.065 66.5658 791.013 57.1146C786.125 47.6634 779.281 40.412 770.481 35.3605C761.682 30.309 751.661 27.7833 740.417 27.7833C729.173 27.7833 719.152 30.309 710.352 35.3605C701.553 40.412 694.627 47.6634 689.576 57.1146C684.687 66.5658 682.243 77.565 682.243 90.1123C682.243 102.66 684.687 113.74 689.576 123.354C694.627 132.806 701.553 140.138 710.352 145.353C719.152 150.404 729.173 152.93 740.417 152.93Z" fill="#373737"/>
<path d="M855.065 10.7059C853.549 10.7059 852.278 10.1926 851.252 9.16603C850.225 8.13944 849.712 6.86842 849.712 5.35296C849.712 3.83751 850.225 2.56649 851.252 1.5399C852.278 0.513299 853.549 0 855.065 0C856.531 0 857.778 0.513299 858.804 1.5399C859.831 2.56649 860.344 3.83751 860.344 5.35296C860.344 6.86842 859.831 8.13944 858.804 9.16603C857.778 10.1926 856.531 10.7059 855.065 10.7059ZM859.171 16.0589V56.4628H850.812V16.0589H859.171Z" fill="#373737"/>
<path d="M862.227 36.0775C862.227 32.02 863.058 28.4269 864.72 25.2983C866.431 22.1696 868.729 19.7497 871.613 18.0388C874.546 16.2789 877.797 15.3989 881.365 15.3989C884.005 15.3989 886.596 15.9856 889.138 17.1588C891.729 18.2832 893.782 19.7986 895.298 21.7052V2.19985H903.73V56.4628H895.298V50.3765C893.929 52.3319 892.022 53.9452 889.578 55.2162C887.183 56.4872 884.421 57.1227 881.292 57.1227C877.772 57.1227 874.546 56.2428 871.613 54.4829C868.729 52.6741 866.431 50.181 864.72 47.0034C863.058 43.777 862.227 40.135 862.227 36.0775ZM895.298 36.2242C895.298 33.4377 894.711 31.0179 893.538 28.9647C892.413 26.9115 890.922 25.3471 889.065 24.2717C887.207 23.1962 885.203 22.6584 883.052 22.6584C880.901 22.6584 878.897 23.1962 877.039 24.2717C875.181 25.2983 873.666 26.8381 872.493 28.8913C871.368 30.8956 870.806 33.291 870.806 36.0775C870.806 38.864 871.368 41.3083 872.493 43.4103C873.666 45.5124 875.181 47.1256 877.039 48.25C878.945 49.3255 880.95 49.8632 883.052 49.8632C885.203 49.8632 887.207 49.3255 889.065 48.25C890.922 47.1745 892.413 45.6102 893.538 43.557C894.711 41.4549 895.298 39.0106 895.298 36.2242Z" fill="#373737"/>
<path d="M946.608 35.2709C946.608 36.7864 946.51 38.1551 946.315 39.3773H915.443C915.688 42.6037 916.886 45.1947 919.037 47.1501C921.188 49.1055 923.827 50.0832 926.956 50.0832C931.453 50.0832 934.631 48.2011 936.489 44.4369H945.508C944.286 48.1522 942.062 51.2076 938.835 53.603C935.658 55.9495 931.698 57.1227 926.956 57.1227C923.094 57.1227 919.623 56.2672 916.543 54.5562C913.513 52.7964 911.117 50.3521 909.357 47.2234C907.646 44.0458 906.791 40.3794 906.791 36.2242C906.791 32.0689 907.622 28.4269 909.284 25.2983C910.995 22.1207 913.366 19.6764 916.397 17.9654C919.477 16.2544 922.996 15.3989 926.956 15.3989C930.769 15.3989 934.167 16.23 937.149 17.8921C940.131 19.5542 942.453 21.9007 944.115 24.9316C945.777 27.9136 946.608 31.3601 946.608 35.2709ZM937.882 32.6311C937.833 29.5513 936.733 27.0826 934.582 25.2249C932.431 23.3673 929.767 22.4385 926.589 22.4385C923.705 22.4385 921.236 23.3673 919.183 25.2249C917.13 27.0337 915.908 29.5024 915.517 32.6311H937.882Z" fill="#373737"/>
<path d="M970.087 15.3989C973.264 15.3989 976.1 16.0589 978.593 17.3788C981.135 18.6987 983.115 20.6541 984.532 23.2451C985.95 25.836 986.659 28.9647 986.659 32.6311V56.4628H978.373V33.8777C978.373 30.2601 977.469 27.4981 975.66 25.5916C973.851 23.6361 971.382 22.6584 968.254 22.6584C965.125 22.6584 962.632 23.6361 960.774 25.5916C958.965 27.4981 958.061 30.2601 958.061 33.8777V56.4628H949.702V16.0589H958.061V20.6786C959.43 19.0165 961.165 17.721 963.267 16.7922C965.418 15.8634 967.691 15.3989 970.087 15.3989Z" fill="#373737"/>
<path d="M1001.94 22.8784V45.2435C1001.94 46.759 1002.28 47.8589 1002.97 48.5433C1003.7 49.1788 1004.92 49.4966 1006.63 49.4966H1011.77V56.4628H1005.17C1001.4 56.4628 998.52 55.5828 996.515 53.823C994.511 52.0631 993.509 49.2033 993.509 45.2435V22.8784H988.743V16.0589H993.509V6.01292H1001.94V16.0589H1011.77V22.8784H1001.94Z" fill="#373737"/>
<path d="M1018.59 10.7059C1017.08 10.7059 1015.81 10.1926 1014.78 9.16603C1013.75 8.13944 1013.24 6.86842 1013.24 5.35296C1013.24 3.83751 1013.75 2.56649 1014.78 1.5399C1015.81 0.513299 1017.08 0 1018.59 0C1020.06 0 1021.31 0.513299 1022.33 1.5399C1023.36 2.56649 1023.87 3.83751 1023.87 5.35296C1023.87 6.86842 1023.36 8.13944 1022.33 9.16603C1021.31 10.1926 1020.06 10.7059 1018.59 10.7059ZM1022.7 16.0589V56.4628H1014.34V16.0589H1022.7Z" fill="#373737"/>
<path d="M1038.29 22.8784V45.2435C1038.29 46.759 1038.64 47.8589 1039.32 48.5433C1040.05 49.1788 1041.28 49.4966 1042.99 49.4966H1048.12V56.4628H1041.52C1037.76 56.4628 1034.87 55.5828 1032.87 53.823C1030.86 52.0631 1029.86 49.2033 1029.86 45.2435V22.8784H1025.09V16.0589H1029.86V6.01292H1038.29V16.0589H1048.12V22.8784H1038.29Z" fill="#373737"/>
<path d="M1087.06 16.0589L1062.28 75.4548H1053.62L1061.84 55.8028L1045.92 16.0589H1055.24L1066.6 46.8568L1078.41 16.0589H1087.06Z" fill="#373737"/>
<path d="M848.025 94.7401C848.025 90.6826 848.856 87.0895 850.518 83.9609C852.229 80.8322 854.527 78.4124 857.411 76.7014C860.344 74.9415 863.571 74.0616 867.09 74.0616C870.268 74.0616 873.03 74.6971 875.377 75.9681C877.772 77.1902 879.678 78.7301 881.096 80.5878V74.7215H889.529V115.125H881.096V109.112C879.678 111.019 877.747 112.608 875.303 113.879C872.859 115.15 870.072 115.785 866.944 115.785C863.473 115.785 860.295 114.905 857.411 113.146C854.527 111.337 852.229 108.844 850.518 105.666C848.856 102.44 848.025 98.7976 848.025 94.7401ZM881.096 94.8868C881.096 92.1003 880.51 89.6805 879.336 87.6273C878.212 85.5741 876.721 84.0098 874.863 82.9343C873.006 81.8588 871.001 81.321 868.85 81.321C866.699 81.321 864.695 81.8588 862.837 82.9343C860.98 83.9609 859.464 85.5008 858.291 87.554C857.167 89.5583 856.604 91.9537 856.604 94.7401C856.604 97.5266 857.167 99.9709 858.291 102.073C859.464 104.175 860.98 105.788 862.837 106.913C864.744 107.988 866.748 108.526 868.85 108.526C871.001 108.526 873.006 107.988 874.863 106.913C876.721 105.837 878.212 104.273 879.336 102.22C880.51 100.118 881.096 97.6733 881.096 94.8868Z" fill="#373737"/>
<path d="M903.735 80.7344C905.153 78.779 907.084 77.1902 909.528 75.9681C912.021 74.6971 914.783 74.0616 917.814 74.0616C921.383 74.0616 924.609 74.9171 927.493 76.628C930.378 78.339 932.651 80.7833 934.313 83.9609C935.975 87.0895 936.806 90.6826 936.806 94.7401C936.806 98.7976 935.975 102.44 934.313 105.666C932.651 108.844 930.353 111.337 927.42 113.146C924.536 114.905 921.334 115.785 917.814 115.785C914.685 115.785 911.899 115.174 909.455 113.952C907.059 112.73 905.153 111.166 903.735 109.259V115.125H895.376V60.8625H903.735V80.7344ZM928.3 94.7401C928.3 91.9537 927.713 89.5583 926.54 87.554C925.416 85.5008 923.9 83.9609 921.994 82.9343C920.136 81.8588 918.132 81.321 915.981 81.321C913.879 81.321 911.875 81.8588 909.968 82.9343C908.11 84.0098 906.595 85.5741 905.422 87.6273C904.297 89.6805 903.735 92.1003 903.735 94.8868C903.735 97.6733 904.297 100.118 905.422 102.22C906.595 104.273 908.11 105.837 909.968 106.913C911.875 107.988 913.879 108.526 915.981 108.526C918.132 108.526 920.136 107.988 921.994 106.913C923.9 105.788 925.416 104.175 926.54 102.073C927.713 99.9709 928.3 97.5266 928.3 94.7401Z" fill="#373737"/>
<path d="M954.605 115.785C951.428 115.785 948.568 115.223 946.026 114.099C943.533 112.926 941.553 111.361 940.086 109.406C938.62 107.401 937.838 105.177 937.74 102.733H946.393C946.539 104.444 947.346 105.886 948.812 107.059C950.328 108.184 952.21 108.746 954.459 108.746C956.805 108.746 958.614 108.306 959.885 107.426C961.205 106.497 961.865 105.324 961.865 103.906C961.865 102.391 961.132 101.266 959.665 100.533C958.247 99.7998 955.974 98.9932 952.846 98.1132C949.815 97.2822 947.346 96.4756 945.439 95.6934C943.533 94.9112 941.871 93.7135 940.453 92.1003C939.084 90.4871 938.4 88.3606 938.4 85.7207C938.4 83.5698 939.035 81.6144 940.306 79.8545C941.577 78.0457 943.386 76.628 945.733 75.6014C948.128 74.5749 950.866 74.0616 953.945 74.0616C958.541 74.0616 962.232 75.2348 965.018 77.5813C967.853 79.8789 969.369 83.032 969.564 87.0407H961.205C961.058 85.2319 960.325 83.7898 959.005 82.7143C957.685 81.6388 955.901 81.1011 953.652 81.1011C951.452 81.1011 949.766 81.5166 948.593 82.3476C947.419 83.1787 946.833 84.2786 946.833 85.6474C946.833 86.7229 947.224 87.6273 948.006 88.3606C948.788 89.0938 949.741 89.6805 950.866 90.1204C951.99 90.5115 953.652 91.0248 955.852 91.6603C958.785 92.4425 961.18 93.2491 963.038 94.0802C964.945 94.8623 966.582 96.0356 967.951 97.5999C969.32 99.1643 970.029 101.242 970.078 103.833C970.078 106.13 969.442 108.184 968.171 109.992C966.9 111.801 965.091 113.219 962.745 114.245C960.447 115.272 957.734 115.785 954.605 115.785Z" fill="#373737"/>
<path d="M983.73 81.541V103.906C983.73 105.422 984.072 106.522 984.756 107.206C985.49 107.841 986.712 108.159 988.423 108.159H993.556V115.125H986.956C983.192 115.125 980.308 114.245 978.304 112.486C976.299 110.726 975.297 107.866 975.297 103.906V81.541H970.531V74.7215H975.297V64.6755H983.73V74.7215H993.556V81.541H983.73Z" fill="#373737"/>
<path d="M1004.49 80.5878C1005.71 78.5346 1007.32 76.9458 1009.33 75.8214C1011.38 74.6482 1013.8 74.0616 1016.59 74.0616V82.7143H1014.46C1011.18 82.7143 1008.69 83.5453 1006.98 85.2075C1005.32 86.8696 1004.49 89.7538 1004.49 93.8602V115.125H996.128V74.7215H1004.49V80.5878Z" fill="#373737"/>
<path d="M1016.35 94.7401C1016.35 90.6826 1017.18 87.0895 1018.84 83.9609C1020.55 80.8322 1022.85 78.4124 1025.74 76.7014C1028.67 74.9415 1031.9 74.0616 1035.42 74.0616C1038.59 74.0616 1041.36 74.6971 1043.7 75.9681C1046.1 77.1902 1048 78.7301 1049.42 80.5878V74.7215H1057.85V115.125H1049.42V109.112C1048 111.019 1046.07 112.608 1043.63 113.879C1041.18 115.15 1038.4 115.785 1035.27 115.785C1031.8 115.785 1028.62 114.905 1025.74 113.146C1022.85 111.337 1020.55 108.844 1018.84 105.666C1017.18 102.44 1016.35 98.7976 1016.35 94.7401ZM1049.42 94.8868C1049.42 92.1003 1048.84 89.6805 1047.66 87.6273C1046.54 85.5741 1045.05 84.0098 1043.19 82.9343C1041.33 81.8588 1039.33 81.321 1037.18 81.321C1035.02 81.321 1033.02 81.8588 1031.16 82.9343C1029.31 83.9609 1027.79 85.5008 1026.62 87.554C1025.49 89.5583 1024.93 91.9537 1024.93 94.7401C1024.93 97.5266 1025.49 99.9709 1026.62 102.073C1027.79 104.175 1029.31 105.788 1031.16 106.913C1033.07 107.988 1035.07 108.526 1037.18 108.526C1039.33 108.526 1041.33 107.988 1043.19 106.913C1045.05 105.837 1046.54 104.273 1047.66 102.22C1048.84 100.118 1049.42 97.6733 1049.42 94.8868Z" fill="#373737"/>
<path d="M1060.91 94.8868C1060.91 90.7315 1061.75 87.0895 1063.41 83.9609C1065.12 80.7833 1067.47 78.339 1070.45 76.628C1073.43 74.9171 1076.85 74.0616 1080.71 74.0616C1085.6 74.0616 1089.64 75.2348 1092.81 77.5813C1096.04 79.8789 1098.21 83.1787 1099.34 87.4806H1090.32C1089.59 85.4763 1088.41 83.912 1086.8 82.7876C1085.19 81.6632 1083.16 81.1011 1080.71 81.1011C1077.29 81.1011 1074.55 82.3232 1072.5 84.7675C1070.5 87.1629 1069.49 90.536 1069.49 94.8868C1069.49 99.2376 1070.5 102.635 1072.5 105.079C1074.55 107.524 1077.29 108.746 1080.71 108.746C1085.55 108.746 1088.76 106.619 1090.32 102.366H1099.34C1098.17 106.473 1095.97 109.748 1092.74 112.192C1089.51 114.588 1085.5 115.785 1080.71 115.785C1076.85 115.785 1073.43 114.93 1070.45 113.219C1067.47 111.459 1065.12 109.015 1063.41 105.886C1061.75 102.708 1060.91 99.042 1060.91 94.8868Z" fill="#373737"/>
<path d="M1112.29 81.541V103.906C1112.29 105.422 1112.63 106.522 1113.32 107.206C1114.05 107.841 1115.27 108.159 1116.98 108.159H1122.12V115.125H1115.52C1111.75 115.125 1108.87 114.245 1106.86 112.486C1104.86 110.726 1103.86 107.866 1103.86 103.906V81.541H1099.09V74.7215H1103.86V64.6755H1112.29V74.7215H1122.12V81.541H1112.29Z" fill="#373737"/>
<path d="M1128.94 69.3685C1127.42 69.3685 1126.15 68.8552 1125.13 67.8287C1124.1 66.8021 1123.59 65.531 1123.59 64.0156C1123.59 62.5001 1124.1 61.2291 1125.13 60.2025C1126.15 59.1759 1127.42 58.6626 1128.94 58.6626C1130.41 58.6626 1131.65 59.1759 1132.68 60.2025C1133.71 61.2291 1134.22 62.5001 1134.22 64.0156C1134.22 65.531 1133.71 66.8021 1132.68 67.8287C1131.65 68.8552 1130.41 69.3685 1128.94 69.3685ZM1133.05 74.7215V115.125H1124.69V74.7215H1133.05Z" fill="#373737"/>
<path d="M1156.41 115.785C1152.6 115.785 1149.15 114.93 1146.07 113.219C1142.99 111.459 1140.58 109.015 1138.82 105.886C1137.06 102.708 1136.18 99.042 1136.18 94.8868C1136.18 90.7804 1137.08 87.1384 1138.89 83.9609C1140.7 80.7833 1143.17 78.339 1146.29 76.628C1149.42 74.9171 1152.92 74.0616 1156.78 74.0616C1160.64 74.0616 1164.14 74.9171 1167.27 76.628C1170.4 78.339 1172.86 80.7833 1174.67 83.9609C1176.48 87.1384 1177.39 90.7804 1177.39 94.8868C1177.39 98.9932 1176.46 102.635 1174.6 105.813C1172.74 108.99 1170.2 111.459 1166.97 113.219C1163.8 114.93 1160.28 115.785 1156.41 115.785ZM1156.41 108.526C1158.56 108.526 1160.57 108.013 1162.43 106.986C1164.33 105.959 1165.87 104.419 1167.05 102.366C1168.22 100.313 1168.81 97.8199 1168.81 94.8868C1168.81 91.9537 1168.24 89.4849 1167.12 87.4806C1166 85.4274 1164.5 83.8875 1162.65 82.8609C1160.79 81.8344 1158.78 81.321 1156.63 81.321C1154.48 81.321 1152.48 81.8344 1150.62 82.8609C1148.81 83.8875 1147.37 85.4274 1146.29 87.4806C1145.22 89.4849 1144.68 91.9537 1144.68 94.8868C1144.68 99.2376 1145.78 102.611 1147.98 105.006C1150.23 107.353 1153.04 108.526 1156.41 108.526Z" fill="#373737"/>
<path d="M1200.9 74.0616C1204.08 74.0616 1206.91 74.7215 1209.41 76.0414C1211.95 77.3613 1213.93 79.3167 1215.35 81.9077C1216.77 84.4986 1217.47 87.6273 1217.47 91.2937V115.125H1209.19V92.5403C1209.19 88.9227 1208.28 86.1607 1206.47 84.2542C1204.67 82.2988 1202.2 81.321 1199.07 81.321C1195.94 81.321 1193.45 82.2988 1191.59 84.2542C1189.78 86.1607 1188.88 88.9227 1188.88 92.5403V115.125H1180.52V74.7215H1188.88V79.3412C1190.24 77.6791 1191.98 76.3836 1194.08 75.4548C1196.23 74.526 1198.51 74.0616 1200.9 74.0616Z" fill="#373737"/>
<path d="M1253.86 81.541H1246.38V115.125H1237.95V81.541H1233.18V74.7215H1237.95V71.8617C1237.95 67.2176 1239.17 63.8445 1241.61 61.7424C1244.11 59.5914 1247.99 58.516 1253.27 58.516V65.4821C1250.73 65.4821 1248.95 65.971 1247.92 66.9487C1246.89 67.8775 1246.38 69.5152 1246.38 71.8617V74.7215H1253.86V81.541Z" fill="#373737"/>
<path d="M1273.66 115.785C1269.85 115.785 1266.4 114.93 1263.32 113.219C1260.24 111.459 1257.82 109.015 1256.06 105.886C1254.3 102.708 1253.42 99.042 1253.42 94.8868C1253.42 90.7804 1254.32 87.1384 1256.13 83.9609C1257.94 80.7833 1260.41 78.339 1263.54 76.628C1266.67 74.9171 1270.16 74.0616 1274.03 74.0616C1277.89 74.0616 1281.38 74.9171 1284.51 76.628C1287.64 78.339 1290.11 80.7833 1291.92 83.9609C1293.73 87.1384 1294.63 90.7804 1294.63 94.8868C1294.63 98.9932 1293.7 102.635 1291.84 105.813C1289.99 108.99 1287.44 111.459 1284.22 113.219C1281.04 114.93 1277.52 115.785 1273.66 115.785ZM1273.66 108.526C1275.81 108.526 1277.81 108.013 1279.67 106.986C1281.58 105.959 1283.12 104.419 1284.29 102.366C1285.46 100.313 1286.05 97.8199 1286.05 94.8868C1286.05 91.9537 1285.49 89.4849 1284.36 87.4806C1283.24 85.4274 1281.75 83.8875 1279.89 82.8609C1278.03 81.8344 1276.03 81.321 1273.88 81.321C1271.73 81.321 1269.72 81.8344 1267.87 82.8609C1266.06 83.8875 1264.62 85.4274 1263.54 87.4806C1262.46 89.4849 1261.93 91.9537 1261.93 94.8868C1261.93 99.2376 1263.03 102.611 1265.23 105.006C1267.47 107.353 1270.29 108.526 1273.66 108.526Z" fill="#373737"/>
<path d="M1306.12 80.5878C1307.34 78.5346 1308.96 76.9458 1310.96 75.8214C1313.01 74.6482 1315.43 74.0616 1318.22 74.0616V82.7143H1316.09C1312.82 82.7143 1310.33 83.5453 1308.61 85.2075C1306.95 86.8696 1306.12 89.7538 1306.12 93.8602V115.125H1297.76V74.7215H1306.12V80.5878Z" fill="#373737"/>
<path d="M855.065 128.031C853.549 128.031 852.278 127.518 851.252 126.491C850.225 125.465 849.712 124.194 849.712 122.678C849.712 121.163 850.225 119.892 851.252 118.865C852.278 117.839 853.549 117.325 855.065 117.325C856.531 117.325 857.778 117.839 858.804 118.865C859.831 119.892 860.344 121.163 860.344 122.678C860.344 124.194 859.831 125.465 858.804 126.491C857.778 127.518 856.531 128.031 855.065 128.031ZM859.171 181.707C859.171 185.667 858.169 188.527 856.164 190.287C854.209 192.096 851.349 193 847.585 193H843.259V185.96H846.119C847.83 185.96 849.027 185.618 849.712 184.934C850.445 184.298 850.812 183.223 850.812 181.707V133.384H859.171V181.707Z" fill="#373737"/>
<path d="M882.539 174.448C878.726 174.448 875.279 173.592 872.199 171.881C869.12 170.122 866.7 167.677 864.94 164.549C863.18 161.371 862.3 157.705 862.3 153.549C862.3 149.443 863.204 145.801 865.013 142.623C866.822 139.446 869.291 137.002 872.419 135.291C875.548 133.58 879.043 132.724 882.905 132.724C886.767 132.724 890.263 133.58 893.391 135.291C896.52 137.002 898.989 139.446 900.797 142.623C902.606 145.801 903.51 149.443 903.51 153.549C903.51 157.656 902.582 161.298 900.724 164.475C898.866 167.653 896.324 170.122 893.098 171.881C889.92 173.592 886.401 174.448 882.539 174.448ZM882.539 167.188C884.69 167.188 886.694 166.675 888.552 165.649C890.458 164.622 891.998 163.082 893.171 161.029C894.344 158.976 894.931 156.483 894.931 153.549C894.931 150.616 894.369 148.148 893.245 146.143C892.12 144.09 890.629 142.55 888.771 141.524C886.914 140.497 884.91 139.984 882.759 139.984C880.608 139.984 878.603 140.497 876.746 141.524C874.937 142.55 873.495 144.09 872.419 146.143C871.344 148.148 870.806 150.616 870.806 153.549C870.806 157.9 871.906 161.273 874.106 163.669C876.355 166.015 879.165 167.188 882.539 167.188Z" fill="#373737"/>
<path d="M943.232 133.384V173.788H934.873V169.022C933.553 170.684 931.817 172.004 929.666 172.981C927.564 173.91 925.316 174.375 922.92 174.375C919.743 174.375 916.883 173.715 914.341 172.395C911.848 171.075 909.868 169.119 908.401 166.529C906.984 163.938 906.275 160.809 906.275 157.142V133.384H914.561V155.896C914.561 159.513 915.465 162.3 917.274 164.255C919.083 166.162 921.551 167.115 924.68 167.115C927.809 167.115 930.277 166.162 932.086 164.255C933.944 162.3 934.873 159.513 934.873 155.896V133.384H943.232Z" fill="#373737"/>
<path d="M957.488 139.25C958.71 137.197 960.324 135.608 962.328 134.484C964.381 133.311 966.801 132.724 969.587 132.724V141.377H967.461C964.185 141.377 961.692 142.208 959.981 143.87C958.319 145.532 957.488 148.416 957.488 152.523V173.788H949.129V133.384H957.488V139.25Z" fill="#373737"/>
<path d="M992.523 132.724C995.701 132.724 998.536 133.384 1001.03 134.704C1003.57 136.024 1005.55 137.979 1006.97 140.57C1008.39 143.161 1009.1 146.29 1009.1 149.956V173.788H1000.81V151.203C1000.81 147.585 999.905 144.823 998.097 142.917C996.288 140.961 993.819 139.984 990.69 139.984C987.562 139.984 985.069 140.961 983.211 142.917C981.402 144.823 980.498 147.585 980.498 151.203V173.788H972.138V133.384H980.498V138.004C981.867 136.342 983.602 135.046 985.704 134.117C987.855 133.189 990.128 132.724 992.523 132.724Z" fill="#373737"/>
<path d="M1011.84 153.403C1011.84 149.345 1012.67 145.752 1014.33 142.623C1016.04 139.495 1018.34 137.075 1021.23 135.364C1024.16 133.604 1027.38 132.724 1030.9 132.724C1034.08 132.724 1036.84 133.36 1039.19 134.631C1041.59 135.853 1043.49 137.393 1044.91 139.25V133.384H1053.34V173.788H1044.91V167.775C1043.49 169.682 1041.56 171.27 1039.12 172.541C1036.67 173.812 1033.89 174.448 1030.76 174.448C1027.29 174.448 1024.11 173.568 1021.23 171.808C1018.34 169.999 1016.04 167.506 1014.33 164.329C1012.67 161.102 1011.84 157.46 1011.84 153.403ZM1044.91 153.549C1044.91 150.763 1044.32 148.343 1043.15 146.29C1042.03 144.237 1040.54 142.672 1038.68 141.597C1036.82 140.521 1034.82 139.984 1032.66 139.984C1030.51 139.984 1028.51 140.521 1026.65 141.597C1024.79 142.623 1023.28 144.163 1022.11 146.217C1020.98 148.221 1020.42 150.616 1020.42 153.403C1020.42 156.189 1020.98 158.633 1022.11 160.736C1023.28 162.838 1024.79 164.451 1026.65 165.575C1028.56 166.651 1030.56 167.188 1032.66 167.188C1034.82 167.188 1036.82 166.651 1038.68 165.575C1040.54 164.5 1042.03 162.935 1043.15 160.882C1044.32 158.78 1044.91 156.336 1044.91 153.549Z" fill="#373737"/>
<path d="M1067.55 119.525V173.788H1059.19V119.525H1067.55Z" fill="#373737"/>
<path d="M1077.64 128.031C1076.13 128.031 1074.86 127.518 1073.83 126.491C1072.8 125.465 1072.29 124.194 1072.29 122.678C1072.29 121.163 1072.8 119.892 1073.83 118.865C1074.86 117.839 1076.13 117.325 1077.64 117.325C1079.11 117.325 1080.36 117.839 1081.38 118.865C1082.41 119.892 1082.92 121.163 1082.92 122.678C1082.92 124.194 1082.41 125.465 1081.38 126.491C1080.36 127.518 1079.11 128.031 1077.64 128.031ZM1081.75 133.384V173.788H1073.39V133.384H1081.75Z" fill="#373737"/>
<path d="M1102.26 174.448C1099.08 174.448 1096.22 173.886 1093.68 172.761C1091.19 171.588 1089.21 170.024 1087.74 168.068C1086.27 166.064 1085.49 163.84 1085.39 161.396H1094.05C1094.19 163.107 1095 164.549 1096.47 165.722C1097.98 166.846 1099.86 167.408 1102.11 167.408C1104.46 167.408 1106.27 166.968 1107.54 166.089C1108.86 165.16 1109.52 163.986 1109.52 162.569C1109.52 161.053 1108.79 159.929 1107.32 159.196C1105.9 158.462 1103.63 157.656 1100.5 156.776C1097.47 155.945 1095 155.138 1093.09 154.356C1091.19 153.574 1089.52 152.376 1088.11 150.763C1086.74 149.15 1086.05 147.023 1086.05 144.383C1086.05 142.232 1086.69 140.277 1087.96 138.517C1089.23 136.708 1091.04 135.291 1093.39 134.264C1095.78 133.237 1098.52 132.724 1101.6 132.724C1106.19 132.724 1109.88 133.897 1112.67 136.244C1115.51 138.542 1117.02 141.695 1117.22 145.703H1108.86C1108.71 143.895 1107.98 142.452 1106.66 141.377C1105.34 140.301 1103.55 139.764 1101.31 139.764C1099.11 139.764 1097.42 140.179 1096.25 141.01C1095.07 141.841 1094.49 142.941 1094.49 144.31C1094.49 145.386 1094.88 146.29 1095.66 147.023C1096.44 147.756 1097.39 148.343 1098.52 148.783C1099.64 149.174 1101.31 149.687 1103.51 150.323C1106.44 151.105 1108.83 151.912 1110.69 152.743C1112.6 153.525 1114.24 154.698 1115.6 156.263C1116.97 157.827 1117.68 159.905 1117.73 162.495C1117.73 164.793 1117.1 166.846 1115.82 168.655C1114.55 170.464 1112.74 171.881 1110.4 172.908C1108.1 173.935 1105.39 174.448 1102.26 174.448Z" fill="#373737"/>
<path d="M1131.38 140.204V162.569C1131.38 164.084 1131.73 165.184 1132.41 165.869C1133.14 166.504 1134.37 166.822 1136.08 166.822H1141.21V173.788H1134.61C1130.85 173.788 1127.96 172.908 1125.96 171.148C1123.95 169.388 1122.95 166.529 1122.95 162.569V140.204H1118.18V133.384H1122.95V123.338H1131.38V133.384H1141.21V140.204H1131.38Z" fill="#373737"/>
<path d="M1158.45 174.448C1155.27 174.448 1152.41 173.886 1149.87 172.761C1147.37 171.588 1145.39 170.024 1143.93 168.068C1142.46 166.064 1141.68 163.84 1141.58 161.396H1150.23C1150.38 163.107 1151.19 164.549 1152.65 165.722C1154.17 166.846 1156.05 167.408 1158.3 167.408C1160.65 167.408 1162.46 166.968 1163.73 166.089C1165.05 165.16 1165.71 163.986 1165.71 162.569C1165.71 161.053 1164.97 159.929 1163.51 159.196C1162.09 158.462 1159.82 157.656 1156.69 156.776C1153.66 155.945 1151.19 155.138 1149.28 154.356C1147.37 153.574 1145.71 152.376 1144.29 150.763C1142.93 149.15 1142.24 147.023 1142.24 144.383C1142.24 142.232 1142.88 140.277 1144.15 138.517C1145.42 136.708 1147.23 135.291 1149.57 134.264C1151.97 133.237 1154.71 132.724 1157.79 132.724C1162.38 132.724 1166.07 133.897 1168.86 136.244C1171.69 138.542 1173.21 141.695 1173.41 145.703H1165.05C1164.9 143.895 1164.17 142.452 1162.85 141.377C1161.53 140.301 1159.74 139.764 1157.49 139.764C1155.29 139.764 1153.61 140.179 1152.43 141.01C1151.26 141.841 1150.67 142.941 1150.67 144.31C1150.67 145.386 1151.06 146.29 1151.85 147.023C1152.63 147.756 1153.58 148.343 1154.71 148.783C1155.83 149.174 1157.49 149.687 1159.69 150.323C1162.63 151.105 1165.02 151.912 1166.88 152.743C1168.79 153.525 1170.42 154.698 1171.79 156.263C1173.16 157.827 1173.87 159.905 1173.92 162.495C1173.92 164.793 1173.28 166.846 1172.01 168.655C1170.74 170.464 1168.93 171.881 1166.59 172.908C1164.29 173.935 1161.58 174.448 1158.45 174.448Z" fill="#373737"/>
</svg>
